#!OML:ASF F:\VICON\USERDATA\INSTALL\rory3\rory3.ASF
:FULLY-SPECIFIED
:DEGREES
767
root -2.52929 17.6244 0.468894 7.94854 -45.4458 -2.94531
lowerback 8.18696 -0.905756 0.488349
upperback 2.66143 -1.12932 4.46798
thorax -1.75126 -0.60488 4.46769
lowerneck -17.2848 -2.07287 -10.0076
upperneck 24.7703 -2.6406 8.995
head 11.1191 -1.10662 4.61125
rclavicle 2.32578e-014 1.11319e-014
rhumerus 45.5651 -12.2658 -30.3157
rradius 47.9759
rwrist 11.088
rhand -35.1373 1.27666
rfingers 7.12502
rthumb -8.27726 -28.5412
lclavicle 2.32578e-014 1.11319e-014
lhumerus 36.585 9.35443 45.5596
lradius 47.7308
lwrist 7.07502
lhand -15.7849 18.0537
lfingers 7.12502
lthumb 10.4076 47.7761
rfemur -12.2171 4.39132 21.8942
rtibia 32.4917
rfoot -15.5744 14.6086
rtoes 16.0383
lfemur -31.5504 -5.6501 -11.7154
ltibia 14.7864
lfoot -9.60153 20.2292
ltoes -18.3698
768
root -2.53016 17.6046 0.516928 8.20824 -45.679 -3.25876
lowerback 8.49965 -0.806144 0.66264
upperback 2.83221 -0.984054 4.44679
thorax -1.76149 -0.5351 4.33776
lowerneck -17.3425 -2.02332 -9.66225
upperneck 24.5204 -2.63798 8.95802
head 11.031 -1.07148 4.52921
rclavicle -9.54166e-014 2.78299e-014
rhumerus 44.3829 -10.2381 -30.6001
rradius 47.5326
rwrist 11.1276
rhand -34.2109 1.71565
rfingers 7.12502
rthumb -7.38313 -28.1355
lclavicle -9.54166e-014 2.78299e-014
lhumerus 35.8174 7.32303 46.5686
lradius 47.7355
lwrist 7.15469
lhand -15.2751 18.4836
lfingers 7.12502
lthumb 10.8994 48.1808
rfemur -12.3563 4.11516 21.9858
rtibia 32.84
rfoot -15.6671 15.0151
rtoes 15.7644
lfemur -31.568 -5.49483 -11.6467
ltibia 14.3627
lfoot -9.07371 19.8264
ltoes -17.6227
769
root -2.5307 17.5862 0.566737 8.42721 -45.9273 -3.44824
lowerback 8.79577 -0.718855 0.715759
upperback 3.0264 -0.866504 4.42428
thorax -1.73329 -0.479911 4.2765
lowerneck -17.5651 -2.02784 -9.5053
upperneck 24.2499 -2.64439 8.9492
head 10.9727 -1.05087 4.49005
rclavicle -2.18663e-014 6.36111e-015
rhumerus 43.2235 -8.10156 -30.7022
rradius 47.2351
rwrist 10.8719
rhand -33.6692 1.52114
rfingers 7.12502
rthumb -6.86027 -28.3477
lclavicle -2.18663e-014 6.36111e-015
lhumerus 34.9806 5.30618 47.4201
lradius 47.7849
lwrist 6.93455
lhand -15.0553 18.6363
lfingers 7.12502
lthumb 11.1114 48.3221
rfemur -12.5422 3.82052 21.9862
rtibia 33.1877
rfoot -15.8655 15.3327
rtoes 14.991
lfemur -31.6382 -5.38871 -11.6417
ltibia 14.0003
lfoot -8.38751 19.3591
ltoes -17.1716
770
root -2.53187 17.5715 0.620378 8.80442 -46.1139 -3.68656
lowerback 8.92021 -0.760094 0.804513
upperback 3.14563 -0.917284 4.48405
thorax -1.67507 -0.508527 4.29528
lowerneck -17.6898 -1.94488 -9.56667
upperneck 24.0649 -2.47158 8.9181
head 10.9097 -0.975642 4.50838
rclavicle -2.66371e-014 2.70347e-014
rhumerus 42.366 -5.72955 -30.9075
rradius 46.8757
rwrist 10.8921
rhand -33.1376 1.79845
rfingers 7.12502
rthumb -6.34707 -28.0865
lclavicle -2.66371e-014 2.70347e-014
lhumerus 33.7589 3.5495 48.4176
lradius 47.7903
lwrist 6.3329
lhand -14.4071 18.5813
lfingers 7.12502
lthumb 11.7366 48.2325
rfemur -12.828 3.43347 22.0012
rtibia 33.539
rfoot -16.1013 15.6801
rtoes 13.4445
lfemur -31.8626 -5.40796 -11.543
ltibia 13.706
lfoot -7.65586 18.9057
ltoes -16.993
771
root -2.53413 17.5549 0.675043 9.0926 -46.3524 -3.72404
lowerback 9.06491 -0.790757 0.631712
upperback 3.16151 -0.968675 4.58043
thorax -1.73002 -0.535952 4.50358
lowerneck -17.7508 -1.82341 -9.7757
upperneck 24.0366 -2.23416 8.94463
head 10.8873 -0.881792 4.58796
rclavicle 8.34896e-015 -3.33958e-014
rhumerus 41.6009 -3.35085 -31.3697
rradius 46.3574
rwrist 11.5218
rhand -32.4976 2.71253
rfingers 7.12502
rthumb -5.72918 -27.19
lclavicle 8.34896e-015 -3.33958e-014
lhumerus 32.3504 1.94881 49.8936
lradius 47.6753
lwrist 5.48597
lhand -13.9585 18.78
lfingers 7.12502
lthumb 12.1691 48.4061
rfemur -13.1657 3.05595 21.822
rtibia 33.8778
rfoot -16.2369 16.1785
rtoes 12.6123
lfemur -32.1179 -5.32823 -11.6743
ltibia 13.5594
lfoot -6.94426 18.3611
ltoes -17.1437
772
root -2.54012 17.5335 0.731541 9.37261 -46.6495 -3.80887
lowerback 9.44487 -0.750894 0.216733
upperback 3.08039 -0.934098 4.84053
thorax -2.01441 -0.518545 5.02244
lowerneck -17.6981 -1.73405 -9.99043
upperneck 23.9588 -1.98602 8.74283
head 10.8213 -0.811947 4.5814
rclavicle 0 3.33958e-014
rhumerus 40.7647 -0.858982 -31.6671
rradius 45.8653
rwrist 12.2531
rhand -31.8361 2.52487
rfingers 7.12502
rthumb -5.09044 -27.394
lclavicle 0 3.33958e-014
lhumerus 30.7135 0.309314 51.7156
lradius 47.6135
lwrist 4.73932
lhand -13.7219 18.6894
lfingers 7.12502
lthumb 12.3973 48.3018
rfemur -13.4197 2.97399 21.6655
rtibia 34.1655
rfoot -16.2407 16.6924
rtoes 12.9116
lfemur -32.3291 -4.99925 -11.879
ltibia 13.6247
lfoot -6.39258 17.5896
ltoes -16.5445
773
root -2.54942 17.5082 0.792151 9.84852 -46.9798 -4.30675
lowerback 9.80427 -0.674539 0.25675
upperback 3.11489 -0.820557 4.96854
thorax -2.18472 -0.46273 5.1315
lowerneck -17.6468 -1.63739 -9.91979
upperneck 23.7748 -1.84419 8.6738
head 10.7263 -0.746586 4.55625
rclavicle 3.97569e-014 -2.62396e-014
rhumerus 39.6795 1.4898 -32.1043
rradius 45.4894
rwrist 12.7585
rhand -31.3795 1.81545
rfingers 7.12502
rthumb -4.64957 -28.1135
lclavicle 3.97569e-014 -2.62396e-014
lhumerus 29.2832 -1.64958 53.0531
lradius 47.5531
lwrist 4.16455
lhand -13.7667 18.5698
lfingers 7.12502
lthumb 12.354 48.1848
rfemur -13.506 3.07528 21.7921
rtibia 34.4019
rfoot -16.124 17.2757
rtoes 14.384
lfemur -32.4424 -4.87405 -11.6354
ltibia 13.8572
lfoot -6.17132 16.9696
ltoes -15.3934
774
root -2.56261 17.4818 0.855356 10.3925 -47.2776 -4.99384
lowerback 10.0483 -0.614961 0.610201
upperback 3.28812 -0.71322 4.93434
thorax -2.1532 -0.413189 4.88422
lowerneck -17.6868 -1.54919 -9.57837
upperneck 23.5274 -1.79909 8.667
head 10.6343 -0.690647 4.49283
rclavicle -5.68524e-014 -3.33958e-014
rhumerus 38.4095 3.64323 -32.8805
rradius 45.2043
rwrist 13.1397
rhand -30.9433 2.0292
rfingers 7.12502
rthumb -4.22836 -27.9086
lclavicle -5.68524e-014 -3.33958e-014
lhumerus 28.0958 -3.71161 54.1001
lradius 47.4056
lwrist 3.75447
lhand -14.0988 18.9832
lfingers 7.12502
lthumb 12.0338 48.6172
rfemur -13.4415 3.20999 22.061
rtibia 34.6104
rfoot -16.0556 17.8604
rtoes 16.4408
lfemur -32.4876 -4.73016 -11.2827
ltibia 14.2178
lfoot -5.88514 16.3109
ltoes -15.6969
775
root -2.57908 17.4598 0.922797 10.9571 -47.5969 -5.53711
lowerback 10.1385 -0.517149 0.850951
upperback 3.44592 -0.569382 4.87546
thorax -2.05324 -0.344783 4.66746
lowerneck -17.7859 -1.49365 -9.16762
upperneck 23.2923 -1.78306 8.53937
head 10.561 -0.655392 4.37003
rclavicle 4.17448e-014 0
rhumerus 37.0431 5.57153 -33.9981
rradius 44.88
rwrist 13.701
rhand -30.3284 2.74186
rfingers 7.12502
rthumb -3.63455 -27.2069
lclavicle 4.17448e-014 0
lhumerus 26.8622 -5.6352 55.5279
lradius 47.2156
lwrist 3.27717
lhand -13.4018 18.7038
lfingers 7.12502
lthumb 12.7058 48.2972
rfemur -13.4999 3.25037 22.2267
rtibia 34.8031
rfoot -16.0889 18.3665
rtoes 17.6672
lfemur -32.6275 -4.34662 -11.1812
ltibia 14.6688
lfoot -5.52552 15.4997
ltoes -16.4939
776
root -2.59418 17.4363 0.995006 11.4352 -47.9427 -5.76874
lowerback 10.1668 -0.39363 0.837986
upperback 3.50183 -0.410626 4.80606
thorax -2.02315 -0.266261 4.58268
lowerneck -17.715 -1.46947 -8.91593
upperneck 22.972 -1.80283 8.51598
head 10.4303 -0.641545 4.30394
rclavicle 1.55052e-014 -4.53229e-014
rhumerus 35.6119 7.38483 -35.4216
rradius 44.4947
rwrist 14.4564
rhand -29.8298 3.05241
rfingers 7.12502
rthumb -3.15314 -26.904
lclavicle 1.55052e-014 -4.53229e-014
lhumerus 25.4446 -7.77162 56.9678
lradius 47.1221
lwrist 3.15713
lhand -13.9408 19.3967
lfingers 7.12502
lthumb 12.1862 49.0217
rfemur -13.7249 3.11795 22.1375
rtibia 34.9727
rfoot -16.1192 18.8886
rtoes 17.365
lfemur -32.8939 -3.93226 -11.3671
ltibia 15.2006
lfoot -5.4637 14.7542
ltoes -16.3879
777
root -2.609 17.4136 1.07187 11.7489 -48.3465 -5.76472
lowerback 10.2187 -0.280836 0.758132
upperback 3.52717 -0.271037 4.60785
thorax -2.03667 -0.195053 4.40294
lowerneck -17.5719 -1.42926 -8.64015
upperneck 22.5889 -1.8205 8.53716
head 10.2637 -0.621162 4.24797
rclavicle -9.89948e-014 -3.97569e-015
rhumerus 34.0286 9.24799 -37.0118
rradius 44.2381
rwrist 14.8151
rhand -29.4759 2.75004
rfingers 7.12502
rthumb -2.81135 -27.2112
lclavicle -9.89948e-014 -3.97569e-015
lhumerus 23.8745 -10.2949 57.9381
lradius 47.2699
lwrist 3.60334
lhand -14.8289 19.5005
lfingers 7.12502
lthumb 11.3298 49.1745
rfemur -13.9411 2.93296 21.8306
rtibia 35.0989
rfoot -16.0788 19.5134
rtoes 17.1
lfemur -33.1256 -3.64301 -11.6876
ltibia 15.7094
lfoot -5.15732 14.2053
ltoes -15.5715
